<mxfile host="drawio-plugin" modified="2021-09-30T03:59:18.264Z" agent="5.0 (X11; Linux x86_64) AppleWebKit/537.36 (KHTML, like Gecko) Chrome/89.0.4389.114 Safari/537.36" etag="mqpc8PVPPIFP-yNubDlE" version="14.7.4" type="embed"><diagram id="vCr_QZIkbhl3c7W7ouYl" name="Page-1"><mxGraphModel dx="988" dy="729" grid="1" gridSize="10" guides="1" tooltips="1" connect="1" arrows="1" fold="1" page="1" pageScale="1" pageWidth="1920" pageHeight="1200" math="0" shadow="0"><root><mxCell id="TVlseQ_tvCrdr5mcACya-0"/><mxCell id="TVlseQ_tvCrdr5mcACya-1" parent="TVlseQ_tvCrdr5mcACya-0"/></root></mxGraphModel></diagram></mxfile>